# xmcd
#
# Track frame offsets:
#	150
#	14976
#	25909
#	37971
#	50704
#	69630
#	85092
#	97141
#	113057
#	128307
#	140492
#	148066
#	168828
#	185138
#
# Disc length: 2667 seconds
#
# Revision: 1
# Processed by: cddbd v1.5.2PL0 Copyright (c) Steve Scherf et al.
# Submitted via: audiograbber 1.83.01
#
DISCID=c80a690e
DTITLE=Bill Garrison - I've Got A Couple of Fans
DYEAR=2009
DGENRE=Blues
TTITLE0=New Year's Eve Blues
TTITLE1=Oakum Rag
TTITLE2=It's Sad!
TTITLE3=Respect the Blues
TTITLE4=Politically Incorrect
TTITLE5=Manizer
TTITLE6=Such a Nice Dream
TTITLE7=I've Got a Couple of Fans
TTITLE8=Wabbit Stew
TTITLE9=How Relative Are Relatives
TTITLE10=Country Hill Affair
TTITLE11=Southern Air
TTITLE12=Everybody Hurries for Love
TTITLE13=Who Knows
EXTD=Bill Garrison- harp, guitar, vocals. Cliff Majors- bass. Tommy Crab- drums
EXTD=Dewey Simons, tuba. All songs written by Bill Garrison. 
EXTT0=
EXTT1=
EXTT2=
EXTT3=
EXTT4=
EXTT5=
EXTT6=
EXTT7=
EXTT8=
EXTT9=
EXTT10=
EXTT11=
EXTT12=
EXTT13=
PLAYORDER=
